<?xml version="1.0" encoding="UTF-8"?>
<svg id="Layer_1" data-name="Layer 1" xmlns="http://www.w3.org/2000/svg" viewBox="0 0 57.69 71.25">
	<path d="M57.69,5.52s-5.95-4.46-12.31,2.05c-1.8,1.85-2.85,2.9-13.92,14.01l5.12,5.12L57.69,5.52Z"/>
	<path d="M17.93,54.86c2.06-2.06,3.09-4.53,3.09-7.42,0-.75-.07-1.49-.2-2.24-.13-.74-.37-1.44-.72-2.1l8.91-8.91s2.25,2.13,5.64,5.43l5.15-5.15L20.18,14.84c.35-.66.59-1.36.73-2.1.13-.74.2-1.49.2-2.23,0-2.89-1.03-5.37-3.09-7.43C15.95,1.03,13.48,0,10.59,0S5.23,1.03,3.17,3.08C1.1,5.14.08,7.62.08,10.51s1.02,5.37,3.09,7.42c2.06,2.06,4.53,3.09,7.42,3.09.74,0,1.49-.07,2.24-.2.74-.13,1.45-.37,2.1-.72l8.83,8.83-8.91,8.91c-.66-.35-1.36-.6-2.1-.72-.74-.13-1.49-.2-2.23-.2-2.89,0-5.36,1.03-7.42,3.09-2.06,2.06-3.09,4.53-3.09,7.43s1.02,5.36,3.09,7.42c2.06,2.06,4.53,3.09,7.42,3.09s5.36-1.03,7.42-3.09ZM14.3,14.22c-1.03,1.03-2.26,1.54-3.71,1.54s-2.68-.52-3.7-1.54c-1.03-1.03-1.55-2.27-1.55-3.71s.52-2.68,1.55-3.71c1.02-1.03,2.26-1.54,3.7-1.54s2.69.51,3.71,1.54c1.03,1.03,1.55,2.27,1.55,3.71s-.51,2.68-1.55,3.71ZM5.25,47.44c0-1.45.52-2.68,1.55-3.71,1.02-1.03,2.26-1.54,3.71-1.54s2.68.52,3.71,1.54c1.04,1.03,1.55,2.27,1.55,3.71s-.51,2.68-1.55,3.71c-1.02,1.03-2.26,1.55-3.71,1.55s-2.69-.52-3.71-1.55c-1.04-1.03-1.55-2.26-1.55-3.71Z"/>
	<path d="M17.23,71.25l4.75-4.75,4.75,4.75h24.87v-24.86l-4.71-4.8,4.71-4.51v-9.82L7.35,71.25h9.88ZM41.66,46.82l4.84,4.84-4.84,4.84-4.84-4.84,4.84-4.84ZM31.82,56.66l4.84,4.84-4.84,4.84-4.84-4.84,4.84-4.84Z"/>
</svg>