<?xml version="1.0" encoding="UTF-8"?>
<svg id="Calque_2" data-name="Calque 2" xmlns="http://www.w3.org/2000/svg" viewBox="0 0 198.15 74.67">
  <g id="ElephantArt_structure_laptop_Image" data-name="ElephantArt_structure_laptop Image">
    <g>
      <path d="M11.63,28.73c-3.73,0-7.03-2.82-7.03-8.09s3.35-8.04,6.99-8.04c3.92,0,5.6,2.63,6.17,4.88l4.07-1.72c-.96-3.49-4.11-7.32-10.24-7.32C5.02,8.44,0,13.46,0,20.64s4.93,12.25,11.63,12.25c5.98,0,9.28-3.88,10.38-7.18l-3.97-1.72c-.53,1.82-2.1,4.74-6.41,4.74Z"/>
      <path d="M45.93,16.86c0-4.5-2.68-8.42-9.57-8.42-4.98,0-8.95,3.06-9.43,7.46l4.31,1.01c.29-2.68,2.06-4.64,5.22-4.64,3.49,0,4.98,1.87,4.98,4.12,0,.81-.38,1.53-1.77,1.72l-6.22.91c-3.97.57-6.99,2.87-6.99,6.99,0,3.64,3.01,6.89,7.7,6.89,4.11,0,6.41-2.2,7.42-3.83,0,1.68.14,2.54.24,3.11h4.4c-.09-.57-.29-1.77-.29-3.78v-11.53ZM41.43,22.32c0,5.02-2.97,6.79-6.65,6.79-2.3,0-3.73-1.63-3.73-3.35,0-2.06,1.43-3.16,3.35-3.45l7.03-1.05v1.05Z"/>
      <path d="M73.12,0h-4.45v12.41c-.76-1.87-2.97-3.88-7.03-3.88-6.51,0-10.91,5.55-10.91,12.06,0,6.84,4.16,12.2,10.91,12.2,3.59,0,6.03-1.91,7.13-4.12v.38c0,1.39.14,2.59.24,3.11h4.35c-.05-.38-.24-2.06-.24-4.26V0ZM62.07,28.82c-4.31,0-6.75-3.49-6.75-8.23s2.68-8.08,6.79-8.08,6.6,3.25,6.6,7.99-2.54,8.33-6.65,8.33Z"/>
      <path d="M45.93,50.58c0-4.5-2.68-8.57-9.57-8.57-4.98,0-8.95,3.06-9.43,7.46l4.31,1c.29-2.68,2.06-4.64,5.21-4.64,3.49,0,4.98,2.01,4.98,4.26,0,.81-.38,1.53-1.77,1.72l-6.22.91c-3.97.57-6.99,2.87-6.99,6.99,0,3.64,3.01,6.89,7.7,6.89,4.12,0,6.41-2.2,7.42-3.83,0,1.67.14,2.54.24,3.11h4.4c-.1-.57-.29-1.77-.29-3.78v-11.53ZM41.43,56.04c0,5.02-2.97,6.79-6.65,6.79-2.3,0-3.73-1.63-3.73-3.35,0-2.06,1.43-3.16,3.35-3.45l7.03-1.05v1.05Z"/>
      <polygon points="60.42 60.63 53.86 42.88 48.79 42.88 58.12 65.89 62.67 65.89 71.86 42.88 67.02 42.88 60.42 60.63"/>
      <path d="M80.38,46.9v-4.02h-4.4v23.02h4.5v-11.53c0-5.07,2.54-7.08,6.32-7.08h1.53v-4.78h-1.05c-2.34,0-5.22.86-6.89,4.4Z"/>
      <path d="M163.12,42.88h-4.5v13.88c0,3.49-1.82,5.89-5.45,5.89s-5.22-2.78-5.22-5.93v-13.83h-4.5v14.5c0,5.22,3.25,9.23,8.61,9.23,2.68,0,5.55-1.1,6.79-3.49,0,.96.1,2.25.19,2.77h4.31c-.1-.81-.24-2.44-.24-4.26v-18.76Z"/>
      <rect x="170.15" y="42.88" width="4.45" height="23.01"/>
      <path d="M172.35,32.12c-1.77,0-3.21,1.43-3.21,3.25s1.44,3.21,3.21,3.21,3.25-1.44,3.25-3.21-1.43-3.25-3.25-3.25Z"/>
      <path d="M191.79,52.64l-3.73-.81c-1.77-.38-2.63-1.39-2.63-2.77,0-1.58,1.53-3.06,3.83-3.06,3.64,0,4.59,2.63,4.79,3.83l3.97-1.48c-.48-2.06-2.44-6.17-8.76-6.17-4.5,0-8.18,3.35-8.18,7.27,0,3.25,2.15,5.69,5.74,6.46l3.92.86c1.91.43,2.97,1.53,2.97,2.97,0,1.63-1.39,3.06-3.92,3.06-3.25,0-5.07-1.91-5.36-4.31l-4.07,1.43c.38,2.63,3.06,6.7,9.38,6.7,5.69,0,8.42-3.88,8.42-7.13s-2.2-5.93-6.36-6.84Z"/>
      <path d="M138,9.16h-5.31l-5.55,8.09-5.65-8.09h-5.45l8.28,11.29-8.57,11.72h5.36l5.84-8.47,5.93,8.47h5.41c-1.39-1.87-7.08-9.86-8.47-11.72l8.18-11.29Z"/>
      <path d="M133.33,46.1c-.96-2.06-3.4-4.12-7.37-4.12-6.75,0-10.81,5.5-10.81,12.01s4.31,12.2,10.91,12.2c3.4,0,5.98-1.53,7.18-3.88v12.34h4.45v-31.81h-4.35v3.25ZM126.49,62.23c-4.12,0-6.75-3.49-6.75-8.23s2.58-8.04,6.75-8.04,6.79,3.3,6.79,8.04-2.73,8.23-6.79,8.23Z"/>
      <path d="M90.9,54.26c0,6.68,4.95,12.11,11.11,12.29v-4.1c-3.69-.21-5.88-2.9-6.42-6.45h6.42v-3.65h-6.39c.59-3.51,2.83-6.15,6.39-6.29v-4.09c-6.16.19-11.11,5.61-11.11,12.29Z"/>
      <path d="M102.02,8.45v3.97c3.99.05,6.11,2.83,6.2,6.1h-6.2v3.64h10.8c.05-.29.1-.86.1-1.44,0-7.12-3.91-12.2-10.89-12.27Z"/>
      <path d="M102.44,28.83c-.14,0-.3.02-.41,0v3.97c.12.02.27,0,.41,0,5.11,0,8.69-2.93,10.14-6.73l-3.9-1.33c-.94,2.31-2.79,4.08-6.23,4.08Z"/>
    </g>
  </g>
</svg>