<?xml version="1.0" encoding="UTF-8"?>
<svg id="ElephantArt_structure_laptop_Image" data-name="ElephantArt_structure_laptop Image" xmlns="http://www.w3.org/2000/svg" viewBox="0 0 38.99 42">
	<defs>
		<style>
			.cls-1 {
				fill: #000;
			}
		</style>
	</defs>
	<polygon class="cls-1" points="12.28 12.19 12.28 9.76 12.28 0 14.19 1.91 12.28 12.19"/>
	<polygon class="cls-1" points="16.09 3.81 17.77 5.49 12.28 17.52 12.28 15.9 16.09 3.81"/>
	<polygon class="cls-1" points="19.19 6.91 20.84 8.56 12.28 19.13 12.28 18.41 19.19 6.91"/>
	<polygon class="cls-1" points="12.91 19.52 12.28 19.52 31.8 0 31.8 5.79 12.91 19.52"/>
	<polygon class="cls-1" points="13.44 19.52 15.07 19.52 31.8 13.26 31.8 8.71 13.44 19.52"/>
	<polygon class="cls-1" points="16.63 19.52 22.04 19.52 31.8 19.52 31.8 15.31 16.63 19.52"/>
	<g>
		<path class="cls-1" d="M38.99,41.71c0-.12-.09-.25-.25-.25h-1.54v-3.82c0-.17-.12-.25-.25-.25s-.25.08-.25.25v4.07c0,.13.12.25.25.25h1.79c.16,0,.25-.12.25-.25M34.98,40.38h-1.3l.65-2.1.66,2.1ZM35.92,41.76s0-.05-.01-.08l-1.28-4.1c-.04-.12-.16-.18-.3-.18s-.26.07-.29.18l-1.28,4.1s-.01.05-.01.08c0,.13.1.24.26.24.1,0,.19-.05.23-.18l.29-.94h1.62l.29.94c.04.13.14.18.24.18.15,0,.25-.11.25-.24M32.34,41.71c0-.12-.08-.25-.25-.25h-1.8v-1.59h1.25c.16,0,.25-.13.25-.25s-.09-.25-.25-.25h-1.25v-1.44h1.8c.17,0,.25-.12.25-.25s-.08-.25-.25-.25h-2.05c-.13,0-.25.12-.25.25v4.03c0,.13.12.25.25.25h2.05c.17,0,.25-.12.25-.25M31.85,36.34c0-.13-.11-.26-.25-.26-.03,0-.07.01-.11.03l-1.03.48c-.11.04-.15.13-.15.22,0,.13.1.26.25.26.03,0,.07-.01.11-.03l1.04-.48c.1-.05.14-.13.14-.22M28.38,38.73c0,.41-.31.75-.72.75h-.88v-1.55h.85c.41,0,.75.33.75.75v.06ZM28.88,38.73v-.06c0-.69-.56-1.24-1.25-1.24h-1.1c-.13,0-.25.12-.25.25v4.07c0,.16.12.25.25.25s.25-.08.25-.25v-1.77h.67l.89,1.88c.05.11.14.14.22.14.16,0,.26-.11.26-.25,0-.03,0-.07-.03-.11l-.81-1.7c.53-.15.9-.63.9-1.21M25.59,37.68c0-.12-.08-.25-.25-.25h-1.94c-.16,0-.25.12-.25.25s.09.25.25.25h.72v3.82c0,.16.12.25.25.25s.25-.08.25-.25v-3.82h.72c.16,0,.25-.12.25-.25M22.47,41.7v-4.06c0-.17-.12-.25-.24-.25s-.26.08-.26.25v3.21l-1.42-3.24c-.08-.18-.19-.21-.33-.21-.15,0-.3.08-.3.26v4.1c0,.16.12.25.25.25s.25-.08.25-.25v-3.21l1.43,3.23c.1.22.24.22.34.22.14,0,.28-.08.28-.29M18.34,40.75c0,.41-.33.75-.74.75h-.07c-.41,0-.75-.33-.75-.75v-2.12c0-.41.33-.74.75-.74h.07c.41,0,.74.33.74.75v2.12ZM18.83,40.75v-2.12c0-.68-.55-1.24-1.24-1.24h-.07c-.69,0-1.25.55-1.25,1.24v2.12c0,.69.56,1.25,1.25,1.25h.07c.69,0,1.24-.56,1.24-1.25M6.21,41.71c0-.12-.08-.25-.25-.25h-1.8v-1.59h1.25c.16,0,.25-.13.25-.25s-.09-.25-.25-.25h-1.25v-1.44h1.8c.17,0,.25-.12.25-.25s-.08-.25-.25-.25h-2.05c-.13,0-.25.12-.25.25v4.03c0,.13.12.25.25.25h2.05c.17,0,.25-.12.25-.25M2.09,40.71c0,.41-.33.75-.75.75h-.81v-3.53h.82c.41,0,.74.33.74.75v2.04ZM2.58,40.71v-2.04c0-.68-.55-1.24-1.24-1.24H.28c-.13,0-.25.12-.25.25v4.03c0,.13.12.25.25.25h1.06c.69,0,1.24-.56,1.24-1.25"/>
		<path class="cls-1" d="M24.42,34.22c0-.89-.62-1.11-1.28-1.46-.35-.18-.76-.34-.76-.81,0-.23.18-.62.72-.62h.06c.4,0,.67.24.71.56.02.16.14.24.26.24.12,0,.24-.08.24-.24,0-.6-.56-1.05-1.19-1.05h-.07c-.69,0-1.23.49-1.23,1.12,0,.83.64,1.01,1.27,1.35.41.22.78.37.78.91,0,.46-.23.73-.74.73h-.06c-.43,0-.81-.24-.81-.71,0-.17-.12-.25-.25-.25s-.25.08-.25.24c0,.78.62,1.21,1.3,1.21h.06c.79,0,1.25-.47,1.25-1.22M21.39,31.12c0-.12-.09-.25-.25-.25h-1.94c-.16,0-.25.12-.25.25s.08.25.25.25h.72v3.82c0,.16.12.25.25.25s.25-.09.25-.25v-3.82h.72c.16,0,.25-.12.25-.25M18.02,32.18c0,.41-.31.75-.72.75h-.88v-1.55h.85c.41,0,.75.33.75.75v.06ZM18.52,32.18v-.06c0-.69-.56-1.25-1.25-1.25h-1.1c-.13,0-.25.12-.25.25v4.07c0,.16.12.25.25.25s.25-.09.25-.25v-1.77h.67l.89,1.87c.05.11.14.14.22.14.16,0,.26-.11.26-.25,0-.03,0-.07-.03-.11l-.81-1.7c.53-.15.9-.63.9-1.21M9.31,34.22c0-.89-.62-1.11-1.28-1.46-.35-.18-.76-.34-.76-.81,0-.23.18-.62.72-.62h.06c.4,0,.68.24.71.56.02.16.15.24.26.24.12,0,.24-.08.24-.24,0-.6-.56-1.05-1.19-1.05h-.07c-.69,0-1.23.49-1.23,1.12,0,.83.63,1.01,1.26,1.35.41.22.78.37.78.91,0,.46-.23.73-.74.73h-.07c-.43,0-.81-.24-.81-.71,0-.17-.12-.25-.25-.25s-.25.08-.25.24c0,.78.62,1.21,1.3,1.21h.06c.79,0,1.25-.47,1.25-1.22M6.18,35.16c0-.12-.08-.25-.25-.25h-1.8v-1.59h1.25c.16,0,.25-.12.25-.25s-.08-.25-.25-.25h-1.25v-1.44h1.8c.17,0,.25-.12.25-.25s-.08-.25-.25-.25h-2.05c-.13,0-.25.12-.25.25v4.03c0,.13.12.25.25.25h2.05c.17,0,.25-.12.25-.25M2.06,34.16c0,.41-.33.75-.75.75H.5v-3.53h.82c.41,0,.74.33.74.75v2.04ZM2.55,34.16v-2.04c0-.68-.55-1.24-1.24-1.24H.25c-.13,0-.25.12-.25.25v4.03c0,.13.12.25.25.25h1.06c.69,0,1.24-.56,1.24-1.25"/>
		<path class="cls-1" d="M33.64,28.6c0-.12-.09-.25-.25-.25h-1.54v-3.82c0-.16-.12-.25-.25-.25s-.25.09-.25.25v4.07c0,.13.12.25.25.25h1.79c.16,0,.25-.12.25-.25M30.1,28.64v-4.11c0-.16-.12-.25-.25-.25s-.25.09-.25.25v4.11c0,.17.12.25.25.25s.25-.08.25-.25M28.75,28.6c0-.12-.08-.25-.25-.25h-1.8v-1.59h1.25c.16,0,.25-.12.25-.25s-.08-.25-.25-.25h-1.25v-1.44h1.8c.17,0,.25-.12.25-.25s-.08-.25-.25-.25h-2.05c-.13,0-.25.12-.25.25v4.03c0,.13.12.25.25.25h2.05c.17,0,.25-.12.25-.25M25.28,27.67c0-.89-.62-1.11-1.28-1.45-.35-.18-.76-.34-.76-.81,0-.23.18-.62.72-.62h.06c.4,0,.67.23.71.56.02.16.15.24.26.24.12,0,.24-.08.24-.24,0-.6-.56-1.05-1.19-1.05h-.06c-.69,0-1.23.48-1.23,1.12,0,.83.64,1.01,1.26,1.35.41.22.78.37.78.91,0,.46-.23.73-.74.73h-.07c-.42,0-.81-.24-.81-.71,0-.17-.12-.25-.25-.25s-.25.08-.25.24c0,.78.62,1.21,1.3,1.21h.06c.79,0,1.25-.47,1.25-1.22M21.76,28.59v-4.06c0-.16-.12-.25-.24-.25s-.26.09-.26.25v3.21l-1.42-3.25c-.08-.18-.19-.21-.33-.21s-.29.08-.29.25v4.1c0,.17.12.25.25.25s.25-.08.25-.25v-3.2l1.43,3.23c.1.22.24.22.34.22.14,0,.28-.08.28-.29M17.63,27.64c0,.41-.33.75-.74.75h-.07c-.41,0-.75-.33-.75-.75v-2.12c0-.41.34-.74.75-.74h.07c.41,0,.74.33.74.75v2.12ZM18.13,27.64v-2.12c0-.68-.55-1.24-1.24-1.24h-.07c-.69,0-1.25.55-1.25,1.24v2.12c0,.69.56,1.25,1.25,1.25h.07c.69,0,1.24-.56,1.24-1.25"/>
		<path class="cls-1" d="M15.2,41.75v-4.07c0-.18-.07-.29-.29-.29h-.02c-.18,0-.26.1-.3.19l-1.04,2.35-1.05-2.35c-.04-.09-.12-.19-.29-.19h-.02c-.23,0-.3.11-.3.29v4.07c0,.16.12.25.25.25s.25-.08.25-.25v-3.21l.89,1.99c.05.11.16.17.28.17.11,0,.22-.05.27-.17l.87-1.99v3.21c0,.16.12.25.25.25s.25-.08.25-.25"/>
		<path class="cls-1" d="M14.2,33.82h-1.3l.65-2.1.66,2.1ZM15.14,35.2s0-.05-.01-.08l-1.28-4.1c-.04-.12-.16-.18-.3-.18s-.26.07-.3.18l-1.28,4.1s-.01.05-.01.08c0,.13.11.24.26.24.1,0,.19-.05.23-.18l.3-.95h1.62l.29.95c.04.12.14.18.24.18.15,0,.25-.11.25-.24"/>
		<path class="cls-1" d="M14.82,27.83v-.05c0-.16-.12-.24-.24-.24-.11,0-.22.07-.25.22-.07.35-.37.64-.74.64h-.06c-.41,0-.75-.33-.75-.75v-2.12c0-.41.33-.74.75-.74h.06c.37,0,.67.28.74.63.03.14.14.22.25.22.12,0,.24-.08.24-.24v-.04c-.09-.61-.6-1.07-1.23-1.07h-.06c-.69,0-1.25.55-1.25,1.24v2.12c0,.69.56,1.25,1.25,1.25h.06c.62,0,1.14-.47,1.23-1.06"/>
	</g>
</svg>