<?xml version="1.0" encoding="UTF-8"?>
<svg id="ElephantArt_structure_laptop_Image" data-name="ElephantArt_structure_laptop Image" xmlns="http://www.w3.org/2000/svg" viewBox="0 0 64.25 40.64">
	<defs>
		<style>
			.cls-1 {
				fill: #000;
			}
		</style>
	</defs>
	<path class="cls-1" d="M9.54,21.26c-5.04,0-9.54,3.71-9.54,9.71s4.51,9.67,9.54,9.67,9.57-3.7,9.57-9.67-4.51-9.71-9.57-9.71ZM9.54,37.13c-2.86,0-5.8-1.99-5.8-6.19s2.94-6.19,5.8-6.19,5.82,1.99,5.82,6.19-2.94,6.19-5.82,6.19Z"/>
	<path class="cls-1" d="M32.38,27.35h-3.49v7.5c0,1.49-.89,2.54-2.44,2.54-1.62,0-2.36-1.15-2.36-2.6v-7.44h-3.48v8.15c0,2.8,1.78,5.08,4.9,5.08,1.36,0,2.86-.52,3.57-1.73,0,.52.05,1.13.11,1.39h3.33c-.05-.45-.13-1.34-.13-2.33v-10.56Z"/>
	<polygon class="cls-1" points="16.23 15.13 6.26 15.13 16.09 3.38 16.09 0 1.94 0 1.94 3.43 11.27 3.43 1.6 15.07 1.6 18.59 16.23 18.59 16.23 15.13"/>
	<path class="cls-1" d="M23.51,18.98c3.85,0,6.76-2.88,6.76-6.84s-2.91-6.84-6.76-6.84-6.76,2.86-6.76,6.84,2.91,6.84,6.76,6.84ZM23.51,8.47c1.7,0,3.28,1.23,3.28,3.67s-1.57,3.67-3.28,3.67-3.28-1.26-3.28-3.67,1.57-3.67,3.28-3.67Z"/>
	<path class="cls-1" d="M38.04,5.3c-3.85,0-6.76,2.86-6.76,6.84s2.91,6.84,6.76,6.84,6.76-2.88,6.76-6.84-2.91-6.84-6.76-6.84ZM38.04,15.81c-1.71,0-3.28-1.26-3.28-3.67s1.57-3.67,3.28-3.67,3.28,1.23,3.28,3.67-1.57,3.67-3.28,3.67Z"/>
	<path class="cls-1" d="M61.01,5.32c-1.7,0-3.07.58-4.09,2.15-.66-1.39-2.07-2.15-3.83-2.15-1.42,0-3.07.68-3.78,1.94v-1.57h-3.33v12.9h3.49v-7.55c0-1.42.89-2.54,2.41-2.54s2.28,1.05,2.28,2.44v7.64l3.46-4.14v-3.39c0-1.39.89-2.54,2.39-2.54.89,0,1.49.33,1.85.86l2.39-2.86c-.87-.8-2.04-1.17-3.25-1.17Z"/>
	<path class="cls-1" d="M39.62,23.5h-3.15v1.81c0,1.15-.63,2.05-1.99,2.05h-.66v3.09h2.33v9.79s3.46-4.16,3.46-4.16v-5.63h2.6v-3.09h-2.59v-3.85Z"/>
</svg>