<?xml version="1.0" encoding="UTF-8"?>
<svg id="ElephantArt_structure_laptop_Image" data-name="ElephantArt_structure_laptop Image" xmlns="http://www.w3.org/2000/svg" viewBox="0 0 135.86 24.63">
	<defs>
		<style>
			.cls-1 {
				fill: #000;
			}
		</style>
	</defs>
	<g>
		<path class="cls-1" d="M14.86,12.3c0,3.21-1.75,7.74-7.42,7.74S0,15.51,0,12.3s1.75-7.72,7.44-7.72,7.42,4.6,7.42,7.72ZM11.37,12.3c0-1.11-.49-4.49-3.93-4.49s-3.95,3.38-3.95,4.49.49,4.53,3.95,4.53,3.93-3.42,3.93-4.53Z"/>
		<path class="cls-1" d="M21.68,14.01v5.41c0,.21-.17.38-.39.38h-2.63c-.21,0-.39-.17-.39-.38V5.23c0-.21.17-.39.39-.39h9.56c.21,0,.39.17.39.39v2.42c0,.21-.17.38-.39.38h-6.54v2.8h5.04c.21,0,.38.17.38.38v2.42c0,.21-.17.38-.38.38h-5.04Z"/>
		<path class="cls-1" d="M35.42,14.01v5.41c0,.21-.17.38-.38.38h-2.63c-.21,0-.38-.17-.38-.38V5.23c0-.21.17-.39.38-.39h9.56c.21,0,.38.17.38.39v2.42c0,.21-.17.38-.38.38h-6.54v2.8h5.05c.21,0,.38.17.38.38v2.42c0,.21-.17.38-.38.38h-5.05Z"/>
		<path class="cls-1" d="M62.78,15.34c0,2.61-2.27,4.64-5.54,4.64-2.07,0-3.76-.51-5.58-1.45-.19-.09-.26-.32-.17-.51l1.18-2.18c.08-.19.32-.26.51-.17,1.37.62,2.69,1.11,3.93,1.11,1.11,0,2.05-.54,2.05-1.28,0-.94-1.15-1.35-2.57-1.79-2.16-.71-4.87-1.54-4.87-4.62,0-2.8,2.07-4.47,4.94-4.47.94,0,2.91.13,5.41,1.28.19.11.28.32.19.53l-.96,2.2c-.09.19-.3.28-.51.19-.94-.34-2.71-.98-3.91-.98-.9,0-1.73.28-1.71,1.09.08.92,1.58,1.33,3.25,1.92,2.07.73,4.36,1.75,4.36,4.49Z"/>
		<path class="cls-1" d="M76.79,9.57c-.15.13-.39.13-.54-.02-.9-.92-2.33-1.69-3.46-1.69-3.46,0-3.96,3.33-3.96,4.45s.49,4.43,3.98,4.43c1.2,0,2.61-.68,3.61-1.52.17-.13.41-.13.53.04l1.47,1.75c.15.17.13.43-.02.58-1.56,1.48-3.36,2.42-5.62,2.42-5.69,0-7.44-4.49-7.44-7.7s1.75-7.67,7.44-7.67c2.44,0,4.21,1.05,5.75,2.71.15.15.13.41-.02.55l-1.73,1.67Z"/>
		<path class="cls-1" d="M89.96,14.21l2.46,5.26c.09.15-.04.34-.21.34h-2.97c-.24,0-.45-.13-.56-.34l-2.18-4.68h-1.52v4.64c0,.21-.17.38-.38.38h-2.63c-.21,0-.38-.17-.38-.38V5.23c0-.21.17-.39.38-.39h5.34c4.15,0,5.41,2.91,5.41,4.94s-1.15,3.63-2.76,4.43ZM89.3,9.78c0-.62-.34-1.77-1.88-1.77h-2.44v3.57h2.52c1.45-.04,1.8-1.24,1.8-1.8Z"/>
		<path class="cls-1" d="M99.34,14.01v2.61h6.54c.21,0,.38.17.38.38v2.42c0,.21-.17.38-.38.38h-9.58c-.21,0-.38-.17-.38-.38V5.23c0-.21.17-.39.38-.39h9.58c.21,0,.38.17.38.39v2.42c0,.21-.17.38-.38.38h-6.54v2.8h5.02c.21,0,.39.17.39.38v2.42c0,.21-.17.38-.39.38h-5.02Z"/>
		<path class="cls-1" d="M113.11,14.01v2.61h6.54c.21,0,.38.17.38.38v2.42c0,.21-.17.38-.38.38h-9.58c-.21,0-.39-.17-.39-.38V5.23c0-.21.17-.39.39-.39h9.58c.21,0,.38.17.38.39v2.42c0,.21-.17.38-.38.38h-6.54v2.8h5.02c.21,0,.38.17.38.38v2.42c0,.21-.17.38-.38.38h-5.02Z"/>
		<path class="cls-1" d="M123.84,19.81c-.21,0-.38-.17-.38-.38V4.95c0-.17.13-.32.3-.32.21,0,.41.08.56.21l8.12,7.59v-7.2c0-.21.17-.39.38-.39h2.65c.21,0,.39.17.39.39v14.41c0,.15-.13.28-.28.28-.17,0-.34-.06-.47-.19l-8.21-7.76v7.46c0,.21-.17.38-.38.38h-2.67Z"/>
	</g>
	<g>
		<path class="cls-1" d="M45.99,11.83c0-.22.16-.4.36-.4h1.38c.2,0,.36.18.36.4v.98c0,.22-.16.4-.36.4h-1.38c-.2,0-.36-.18-.36-.4v-.98Z"/>
		<path class="cls-1" d="M45.99,15.69c0-.22.16-.4.36-.4h1.38c.2,0,.36.18.36.4v.98c0,.22-.16.4-.36.4h-1.38c-.2,0-.36-.18-.36-.4v-.98Z"/>
		<path class="cls-1" d="M45.99,19.39c0-.22.16-.4.36-.4h1.38c.2,0,.36.18.36.4v.98c0,.22-.16.4-.36.4h-1.38c-.2,0-.36-.18-.36-.4v-.98Z"/>
		<path class="cls-1" d="M45.99,23.25c0-.22.16-.4.36-.4h1.38c.2,0,.36.18.36.4v.98c0,.22-.16.4-.36.4h-1.38c-.2,0-.36-.18-.36-.4v-.98Z"/>
		<path class="cls-1" d="M45.99.4c0-.22.16-.4.36-.4h1.38c.2,0,.36.18.36.4v.98c0,.22-.16.4-.36.4h-1.38c-.2,0-.36-.18-.36-.4V.4Z"/>
		<path class="cls-1" d="M45.99,4.26c0-.22.16-.4.36-.4h1.38c.2,0,.36.18.36.4v.98c0,.22-.16.4-.36.4h-1.38c-.2,0-.36-.18-.36-.4v-.98Z"/>
		<path class="cls-1" d="M45.99,7.96c0-.22.16-.4.36-.4h1.38c.2,0,.36.18.36.4v.98c0,.22-.16.4-.36.4h-1.38c-.2,0-.36-.18-.36-.4v-.98Z"/>
	</g>
</svg>