<?xml version="1.0" encoding="UTF-8"?>
<svg id="ElephantArt_structure_laptop_Image" data-name="ElephantArt_structure_laptop Image" xmlns="http://www.w3.org/2000/svg" viewBox="0 0 54.34 42.3">
	<defs>
		<style>
			.cls-1 {
				fill: #000;
			}
		</style>
	</defs>
	<path class="cls-1" d="M0,5.68c0-.81.14-1.57.42-2.27.28-.7.67-1.3,1.17-1.8.5-.5,1.1-.89,1.81-1.18C4.11.15,4.87,0,5.69,0,6.79,0,7.77.25,8.63.74c.87.49,1.54,1.16,2.02,2.03.48.87.72,1.84.72,2.92s-.24,2.07-.72,2.93c-.48.87-1.16,1.55-2.02,2.04-.87.49-1.84.74-2.94.74s-2.08-.25-2.95-.74c-.87-.49-1.54-1.17-2.02-2.04-.48-.87-.72-1.84-.72-2.93M2.25,5.68c0,1.08.32,1.97.95,2.66.63.69,1.47,1.04,2.5,1.04s1.86-.35,2.49-1.04c.63-.7.95-1.58.95-2.66s-.32-1.94-.95-2.63c-.63-.69-1.46-1.03-2.49-1.03s-1.87.34-2.5,1.03c-.63.69-.95,1.57-.95,2.63"/>
	<path class="cls-1" d="M16.28,11.19V.2h4.49c1.17,0,2.11.32,2.81.97.7.64,1.05,1.49,1.05,2.54,0,.68-.17,1.28-.5,1.8-.34.52-.81.92-1.42,1.19l2.38,4.5h-2.47l-2.13-4.11h-2.07v4.11h-2.15ZM18.43,5.17h2.34c.51,0,.91-.13,1.21-.38.29-.25.44-.61.44-1.09s-.15-.85-.44-1.11c-.29-.25-.7-.38-1.21-.38h-2.34v2.95Z"/>
	<path class="cls-1" d="M54.34,42.02l-10.99-4.25v-2.37l10.99-4.25v2.34l-2.4.91v4.38l2.4.91v2.34ZM50.03,38.09v-3.01l-3.44,1.3-.61.21.61.2,3.44,1.3Z"/>
	<polygon class="cls-1" points="54.34 26.67 43.35 26.67 43.35 24.18 50.43 21.04 51.08 20.81 50.43 20.56 43.35 17.4 43.35 14.92 54.34 14.92 54.34 17.07 47.39 17.07 48.35 17.38 54.34 19.88 54.34 21.7 48.35 24.2 47.39 24.51 54.34 24.51 54.34 26.67"/>
	<path class="cls-1" d="M54.34,8.55h-10.99V3.86c0-1.18.33-2.11.98-2.81C45,.35,45.85,0,46.9,0s1.89.35,2.55,1.05c.66.7.99,1.63.99,2.8v2.54h3.9v2.15ZM48.43,6.39v-2.54c0-.52-.13-.92-.4-1.22-.27-.3-.64-.45-1.12-.45s-.87.15-1.13.45c-.26.3-.4.7-.4,1.22v2.54h3.06Z"/>
	<path class="cls-1" d="M15.01,36.59c0-1.08.23-2.06.7-2.92.47-.86,1.12-1.54,1.96-2.03.84-.49,1.78-.73,2.84-.73,1.35,0,2.45.34,3.3,1.01.85.67,1.43,1.58,1.73,2.74h-2.37c-.42-1.15-1.31-1.73-2.66-1.73-.97,0-1.75.34-2.35,1.03-.6.69-.9,1.57-.9,2.63s.3,1.96.91,2.66c.6.69,1.39,1.04,2.36,1.04.73,0,1.33-.16,1.8-.49.46-.33.79-.77.99-1.34h2.27c-.31,1.23-.88,2.17-1.73,2.84-.85.67-1.96,1-3.33,1-1.06,0-2.02-.25-2.86-.74-.84-.49-1.49-1.17-1.96-2.04-.46-.87-.7-1.85-.7-2.93"/>
	<polygon class="cls-1" points="29.65 42.1 29.65 31.11 31.8 31.11 31.8 35.63 36.14 35.63 36.14 31.11 38.3 31.11 38.3 42.1 36.14 42.1 36.14 37.64 31.8 37.64 31.8 42.1 29.65 42.1"/>
	<polygon class="cls-1" points="1.37 26.67 1.37 15.67 3.52 15.67 3.52 20.2 7.86 20.2 7.86 15.67 10.01 15.67 10.01 26.67 7.86 26.67 7.86 22.21 3.52 22.21 3.52 26.67 1.37 26.67"/>
	<path class="cls-1" d="M36.06,3.42c-.11-.6-.6-1.54-1.99-1.54-1.03,0-1.71.66-1.71,1.39,0,.6.39,1.08,1.19,1.23l1.53.29c1.99.38,3.06,1.68,3.06,3.22,0,1.68-1.4,3.38-3.95,3.38-2.9,0-4.18-1.87-4.35-3.43l1.97-.52c.09,1.08.85,2.05,2.39,2.05,1.14,0,1.77-.57,1.77-1.34,0-.63-.48-1.13-1.33-1.29l-1.53-.31c-1.74-.35-2.87-1.48-2.87-3.13,0-1.94,1.74-3.42,3.81-3.42,2.66,0,3.67,1.6,3.92,2.84l-1.91.59Z"/>
</svg>