<?xml version="1.0" encoding="UTF-8"?>
<svg id="ElephantArt_structure_laptop_Image" data-name="ElephantArt_structure_laptop Image" xmlns="http://www.w3.org/2000/svg" viewBox="0 0 137.32 25.1">
	<defs>
		<style>
			.cls-1 {
				fill: #000;
			}
		</style>
	</defs>
	<g>
		<g>
			<path class="cls-1" d="M90.69,10.36c-.33.37-.94.79-1.95.79-1.56,0-2.74-1.09-2.74-2.76s1.2-2.76,2.74-2.76c1,0,1.6.42,1.9.71l-.32.6c-.21-.26-.81-.65-1.55-.65-1.16,0-1.99.83-1.99,2.09s.84,2.08,1.99,2.08c.71,0,1.25-.27,1.6-.65l.33.55Z"/>
			<path class="cls-1" d="M94.24,11.05h-.72v-.47c-.16.16-.5.55-1.18.55s-1.27-.43-1.27-1.14.59-1.08,1.44-1.12l.99-.04v-.15c0-.56-.38-.84-.91-.84s-.98.24-1.11.32l-.22-.49c.27-.16.77-.37,1.38-.37s.97.17,1.22.42c.25.26.4.57.4,1.19v2.14ZM93.51,9.29l-.86.05c-.6.03-.84.29-.84.64s.27.63.76.63.8-.33.94-.53v-.79Z"/>
			<path class="cls-1" d="M98.4,11.05h-.74v-2.05c0-.62-.11-1.08-.77-1.08s-.95.58-.95,1.29v1.85h-.74v-3.68h.74v.58s.02,0,.02,0c.19-.37.59-.65,1.12-.65,1.05,0,1.32.69,1.32,1.57v2.18Z"/>
			<path class="cls-1" d="M102.25,11.05h-.72v-.47c-.16.16-.5.55-1.18.55s-1.27-.43-1.27-1.14.59-1.08,1.44-1.12l.98-.04v-.15c0-.56-.38-.84-.92-.84s-.98.24-1.11.32l-.22-.49c.27-.16.77-.37,1.38-.37s.97.17,1.22.42c.25.26.4.57.4,1.19v2.14ZM101.51,9.29l-.86.05c-.6.03-.84.29-.84.64s.27.63.76.63.8-.33.94-.53v-.79Z"/>
			<path class="cls-1" d="M106.77,11.05h-.71v-.59h-.02c-.3.45-.76.68-1.3.68-1.09,0-1.79-.84-1.79-1.93s.7-1.91,1.78-1.91c.6,0,1.03.26,1.29.64h.01v-2.24h.74v5.35ZM104.89,7.91c-.74,0-1.17.56-1.17,1.3s.43,1.3,1.17,1.3,1.17-.57,1.17-1.3-.43-1.3-1.17-1.3Z"/>
			<path class="cls-1" d="M110.69,11.05h-.72v-.47c-.16.16-.5.55-1.18.55s-1.27-.43-1.27-1.14.59-1.08,1.44-1.12l.98-.04v-.15c0-.56-.38-.84-.92-.84s-.98.24-1.11.32l-.22-.49c.27-.16.77-.37,1.38-.37s.97.17,1.22.42c.25.26.39.57.39,1.19v2.14ZM109.95,9.29l-.86.05c-.6.03-.84.29-.84.64s.27.63.76.63.8-.33.94-.53v-.79Z"/>
			<path class="cls-1" d="M117.65,10.36c-.33.37-.94.79-1.95.79-1.56,0-2.74-1.09-2.74-2.76s1.2-2.76,2.74-2.76c1,0,1.6.42,1.9.71l-.32.6c-.21-.26-.81-.65-1.55-.65-1.16,0-1.99.83-1.99,2.09s.84,2.08,1.99,2.08c.71,0,1.25-.27,1.6-.65l.32.55Z"/>
			<path class="cls-1" d="M119.97,11.14c-1.1,0-1.95-.77-1.95-1.92s.85-1.92,1.95-1.92,1.94.78,1.94,1.92-.85,1.92-1.94,1.92ZM119.97,7.91c-.75,0-1.2.57-1.2,1.3s.46,1.3,1.2,1.3,1.19-.57,1.19-1.3-.46-1.3-1.19-1.3Z"/>
			<path class="cls-1" d="M125.82,11.05h-.72v-.53c-.21.36-.63.61-1.15.61s-.83-.18-1.02-.43c-.19-.25-.27-.61-.27-1.14v-2.21h.74v2.18c0,.5.11.98.77.98s.91-.56.91-1.18v-1.98h.75v3.69Z"/>
			<path class="cls-1" d="M130.05,11.05h-.75v-2.05c0-.62-.11-1.08-.77-1.08s-.95.58-.95,1.29v1.85h-.74v-3.68h.74v.58s.02,0,.02,0c.19-.37.59-.65,1.12-.65,1.05,0,1.32.69,1.32,1.57v2.18Z"/>
			<path class="cls-1" d="M134.12,10.58c-.11.11-.49.56-1.47.56s-1.86-.75-1.86-1.92.91-1.92,1.88-1.92,1.39.48,1.43.53l-.26.54c-.12-.12-.45-.45-1.1-.45s-1.19.5-1.19,1.27.49,1.31,1.2,1.31,1.12-.46,1.12-.46l.26.54Z"/>
			<path class="cls-1" d="M135.12,6.62c-.29,0-.49-.19-.49-.46s.2-.46.49-.46.48.19.48.46-.2.46-.48.46ZM135.5,11.05h-.75v-3.68h.75v3.68Z"/>
			<path class="cls-1" d="M137.32,11.05h-.74v-5.35h.74v5.35Z"/>
			<path class="cls-1" d="M88.09,14.98s-.21-.07-.42-.07c-.49,0-.57.36-.57.78v.41h.88v.6h-.88v3.08h-.74v-3.08h-.53v-.6h.53v-.37c0-.48.09-.79.25-.99.16-.2.46-.4.88-.4s.64.09.64.09l-.05.55Z"/>
			<path class="cls-1" d="M90.04,19.86c-1.1,0-1.95-.77-1.95-1.92s.85-1.92,1.95-1.92,1.95.78,1.95,1.92-.85,1.92-1.95,1.92ZM90.04,16.63c-.74,0-1.2.57-1.2,1.29s.46,1.3,1.2,1.3,1.19-.57,1.19-1.3-.46-1.29-1.19-1.29Z"/>
			<path class="cls-1" d="M94.77,16.77h-.03c-.07-.03-.2-.08-.4-.08-.33,0-.53.21-.6.31-.07.1-.23.39-.23.93v1.84h-.74v-3.68h.74v.57s.02,0,.02,0c.18-.42.51-.64.91-.64.25,0,.39.06.39.06l-.05.69Z"/>
			<path class="cls-1" d="M98.69,19.73s-.29.12-.67.12-.63-.15-.78-.38c-.15-.23-.19-.52-.19-1.1v-1.68h-.54v-.6h.54v-1.1h.75v1.1h.88v.6h-.88v1.67c0,.31,0,.52.09.67.07.12.17.19.38.19s.38-.09.38-.09l.05.6Z"/>
			<path class="cls-1" d="M102.55,19.77h-.75v-2.08c0-.53-.08-1.05-.76-1.05s-.96.58-.96,1.32v1.82h-.74v-5.35h.74v2.25h.01c.19-.37.6-.65,1.13-.65,1.06,0,1.32.68,1.32,1.56v2.19Z"/>
			<path class="cls-1" d="M106.9,18.11h-2.84c.04.73.5,1.17,1.19,1.17s1.13-.37,1.22-.43l.31.43s-.52.58-1.62.58-1.84-.76-1.84-1.93.85-1.91,1.87-1.91,1.74.73,1.74,1.76c0,.14-.02.33-.02.33ZM106.22,17.61c0-.41-.32-1.05-1.06-1.05s-1.06.61-1.08,1.05h2.15Z"/>
			<path class="cls-1" d="M113.72,19.77h-.84l-.55-1.39h-2.29l-.55,1.39h-.79l2.18-5.36h.66l2.19,5.36ZM112.13,17.75l-.94-2.4-.94,2.4h1.88Z"/>
			<path class="cls-1" d="M116.25,16.77h-.03c-.07-.03-.2-.08-.4-.08-.33,0-.53.21-.6.31-.07.1-.22.39-.22.93v1.84h-.75v-3.68h.75v.57s.01,0,.01,0c.18-.42.51-.64.91-.64.25,0,.39.06.39.06l-.05.69Z"/>
			<path class="cls-1" d="M118.63,19.73s-.29.12-.67.12-.63-.15-.78-.38c-.16-.23-.19-.52-.19-1.1v-1.68h-.54v-.6h.54v-1.1h.75v1.1h.88v.6h-.88v1.67c0,.31,0,.52.09.67.07.12.17.19.38.19s.38-.09.38-.09l.05.6Z"/>
			<path class="cls-1" d="M121.35,19.53c-.26.21-.6.32-1.02.32-.62,0-1.12-.26-1.43-.66l.36-.43c.28.34.74.53,1.08.53s.71-.12.71-.53-.58-.53-.83-.61c-.25-.09-.33-.1-.5-.2-.23-.12-.58-.35-.58-.88,0-.68.59-1.05,1.24-1.05s1.02.23,1.26.48l-.31.46c-.22-.23-.57-.4-.93-.4s-.59.16-.59.46.36.43.72.55c.2.07.34.12.5.18.15.06.32.15.43.26.14.13.29.35.29.68,0,.36-.14.63-.38.84Z"/>
		</g>
		<g>
			<path class="cls-1" d="M32.97,10.36c-.33.37-.94.79-1.95.79-1.56,0-2.74-1.09-2.74-2.76s1.2-2.76,2.74-2.76c1,0,1.6.42,1.9.71l-.32.6c-.21-.26-.8-.65-1.55-.65-1.16,0-1.99.83-1.99,2.09s.84,2.08,1.99,2.08c.71,0,1.25-.27,1.6-.65l.33.55Z"/>
			<path class="cls-1" d="M35.29,11.14c-1.1,0-1.95-.77-1.95-1.92s.85-1.92,1.95-1.92,1.95.78,1.95,1.92-.85,1.92-1.95,1.92ZM35.29,7.91c-.74,0-1.2.57-1.2,1.3s.46,1.3,1.2,1.3,1.19-.57,1.19-1.3-.46-1.3-1.19-1.3Z"/>
			<path class="cls-1" d="M41.21,11.05h-.74v-2.05c0-.62-.11-1.08-.77-1.08-.69,0-.95.58-.95,1.29v1.85h-.74v-3.68h.74v.58s.02,0,.02,0c.19-.37.59-.65,1.12-.65,1.05,0,1.32.69,1.32,1.57v2.18Z"/>
			<path class="cls-1" d="M44.31,10.81c-.26.21-.6.33-1.02.33-.62,0-1.12-.26-1.43-.66l.36-.43c.28.34.74.53,1.09.53s.7-.12.7-.53-.58-.53-.83-.61c-.25-.08-.33-.1-.5-.19-.23-.12-.58-.36-.58-.88,0-.68.59-1.05,1.24-1.05s1.02.23,1.26.48l-.31.46c-.22-.23-.57-.39-.93-.39s-.59.15-.59.46.36.43.72.55c.2.07.34.12.5.18.15.06.32.15.43.26.14.13.29.35.29.68,0,.36-.14.63-.38.84Z"/>
			<path class="cls-1" d="M48.75,9.39h-2.84c.04.73.5,1.17,1.18,1.17s1.13-.37,1.22-.43l.31.43s-.52.58-1.62.58-1.84-.76-1.84-1.93.84-1.91,1.87-1.91,1.74.73,1.74,1.76c0,.14-.02.33-.02.33ZM48.07,8.89c0-.41-.32-1.05-1.06-1.05s-1.06.61-1.09,1.05h2.15Z"/>
			<path class="cls-1" d="M49.92,6.62c-.29,0-.49-.19-.49-.46s.2-.46.49-.46.48.19.48.46-.2.46-.48.46ZM50.29,11.05h-.74v-3.68h.74v3.68Z"/>
			<path class="cls-1" d="M52.12,11.05h-.74v-5.35h.74v5.35Z"/>
			<path class="cls-1" d="M58.29,11.05h-.71v-.59h-.02c-.3.45-.76.68-1.29.68-1.09,0-1.79-.84-1.79-1.93s.7-1.91,1.78-1.91c.6,0,1.03.26,1.29.64h.02v-2.24h.74v5.35ZM56.4,7.91c-.74,0-1.17.56-1.17,1.3s.43,1.3,1.17,1.3,1.17-.57,1.17-1.3-.43-1.3-1.17-1.3Z"/>
			<path class="cls-1" d="M62.69,9.39h-2.84c.04.73.5,1.17,1.19,1.17s1.13-.37,1.22-.43l.31.43s-.52.58-1.62.58-1.85-.76-1.85-1.93.85-1.91,1.87-1.91,1.74.73,1.74,1.76c0,.14-.02.33-.02.33ZM62.01,8.89c0-.41-.32-1.05-1.06-1.05s-1.06.61-1.09,1.05h2.15Z"/>
			<path class="cls-1" d="M65.55,10.81c-.26.21-.6.33-1.02.33-.62,0-1.12-.26-1.44-.66l.36-.43c.28.34.75.53,1.09.53s.7-.12.7-.53-.58-.53-.83-.61c-.25-.08-.33-.1-.5-.19-.23-.12-.58-.36-.58-.88,0-.68.59-1.05,1.24-1.05s1.02.23,1.26.48l-.31.46c-.22-.23-.57-.39-.93-.39s-.59.15-.59.46.36.43.72.55c.2.07.34.12.5.18.15.06.32.15.43.26.14.13.29.35.29.68,0,.36-.14.63-.38.84Z"/>
			<path class="cls-1" d="M71.06,11.05h-.72v-.47c-.16.16-.5.55-1.18.55s-1.27-.43-1.27-1.14.59-1.08,1.44-1.12l.98-.04v-.15c0-.56-.38-.84-.91-.84s-.98.24-1.11.32l-.22-.49c.27-.16.77-.37,1.38-.37s.97.17,1.22.42c.25.26.4.57.4,1.19v2.14ZM70.33,9.29l-.86.05c-.6.03-.84.29-.84.64s.27.63.76.63.8-.33.94-.53v-.79Z"/>
			<path class="cls-1" d="M74.02,8.05h-.03c-.07-.03-.2-.08-.4-.08-.32,0-.53.21-.6.31-.07.1-.22.39-.22.93v1.84h-.74v-3.68h.74v.57s.02,0,.02,0c.18-.42.51-.63.91-.63.25,0,.39.06.39.06l-.05.69Z"/>
			<path class="cls-1" d="M76.4,11.02s-.29.12-.67.12-.63-.15-.78-.38c-.16-.23-.19-.52-.19-1.1v-1.68h-.54v-.6h.54v-1.1h.75v1.1h.88v.6h-.88v1.67c0,.31,0,.52.09.67.07.12.17.19.38.19s.38-.08.38-.08l.05.6Z"/>
			<path class="cls-1" d="M79.12,10.81c-.26.21-.6.33-1.02.33-.62,0-1.12-.26-1.43-.66l.36-.43c.28.34.74.53,1.09.53s.71-.12.71-.53-.58-.53-.83-.61c-.25-.08-.33-.1-.5-.19-.23-.12-.58-.36-.58-.88,0-.68.59-1.05,1.24-1.05s1.02.23,1.25.48l-.31.46c-.22-.23-.57-.39-.93-.39s-.59.15-.59.46.36.43.72.55c.2.07.34.12.5.18.15.06.32.15.43.26.14.13.29.35.29.68,0,.36-.14.63-.38.84Z"/>
			<path class="cls-1" d="M32.07,19.77h-.71v-.59h-.02c-.3.45-.76.67-1.29.67-1.09,0-1.79-.84-1.79-1.93s.7-1.91,1.78-1.91c.6,0,1.03.26,1.29.64h.01v-2.24h.74v5.35ZM30.19,16.63c-.74,0-1.17.56-1.17,1.29s.43,1.3,1.17,1.3,1.17-.57,1.17-1.3-.43-1.29-1.17-1.29Z"/>
			<path class="cls-1" d="M36.27,19.77h-.72v-.53c-.21.36-.63.61-1.15.61s-.83-.18-1.02-.43c-.19-.25-.27-.61-.27-1.14v-2.21h.74v2.18c0,.5.11.98.77.98s.92-.56.92-1.18v-1.98h.74v3.69Z"/>
			<path class="cls-1" d="M43.3,19.08c-.33.37-.94.79-1.95.79-1.56,0-2.74-1.09-2.74-2.76s1.2-2.76,2.74-2.76c1,0,1.6.42,1.9.71l-.32.6c-.21-.26-.81-.65-1.55-.65-1.16,0-1.99.83-1.99,2.09s.84,2.08,1.99,2.08c.71,0,1.25-.27,1.6-.65l.33.55Z"/>
			<path class="cls-1" d="M46.85,19.77h-.72v-.46c-.16.16-.5.55-1.18.55s-1.27-.43-1.27-1.14.59-1.08,1.44-1.12l.98-.04v-.15c0-.56-.38-.84-.91-.84s-.99.24-1.11.32l-.23-.5c.27-.16.77-.37,1.38-.37s.97.17,1.22.42c.25.26.39.57.39,1.2v2.14ZM46.11,18.01l-.86.05c-.6.03-.84.29-.84.64s.27.63.76.63.8-.33.94-.54v-.79Z"/>
			<path class="cls-1" d="M51,19.77h-.75v-2.05c0-.62-.11-1.09-.77-1.09s-.95.58-.95,1.29v1.85h-.75v-3.68h.75v.58s.02,0,.02,0c.19-.37.59-.65,1.12-.65,1.05,0,1.32.69,1.32,1.57v2.18Z"/>
			<path class="cls-1" d="M54.85,19.77h-.72v-.46c-.16.16-.5.55-1.18.55s-1.27-.43-1.27-1.14.59-1.08,1.44-1.12l.98-.04v-.15c0-.56-.38-.84-.92-.84s-.98.24-1.11.32l-.22-.5c.27-.16.77-.37,1.38-.37s.97.17,1.22.42c.25.26.4.57.4,1.2v2.14ZM54.12,18.01l-.86.05c-.6.03-.84.29-.84.64s.27.63.76.63.8-.33.94-.54v-.79Z"/>
			<path class="cls-1" d="M59.37,19.77h-.71v-.59h-.02c-.3.45-.76.67-1.29.67-1.09,0-1.79-.84-1.79-1.93s.7-1.91,1.78-1.91c.6,0,1.03.26,1.29.64h.02v-2.24h.74v5.35ZM57.49,16.63c-.74,0-1.17.56-1.17,1.29s.43,1.3,1.17,1.3,1.17-.57,1.17-1.3-.44-1.29-1.17-1.29Z"/>
			<path class="cls-1" d="M63.29,19.77h-.72v-.46c-.16.16-.5.55-1.18.55s-1.27-.43-1.27-1.14.59-1.08,1.44-1.12l.99-.04v-.15c0-.56-.38-.84-.91-.84s-.98.24-1.11.32l-.23-.5c.27-.16.77-.37,1.38-.37s.97.17,1.22.42c.25.26.4.57.4,1.2v2.14ZM62.56,18.01l-.86.05c-.6.03-.84.29-.84.64s.27.63.76.63.8-.33.94-.54v-.79Z"/>
		</g>
	</g>
	<g>
		<path class="cls-1" d="M22.17,19.98c-1.2-1.16-4.65-2.17-8.2-2.38-.25.2-.43.4-.53.61,2.99.14,5.86.99,6.92,1.94.96.76.82,1.81-.3,2.53-1.63,1.14-4.99,1.66-8.63,1.65-3.65.01-7-.51-8.63-1.65-1.11-.72-1.26-1.77-.3-2.53,1.06-.95,3.93-1.8,6.92-1.94-.1-.21-.28-.41-.53-.61-3.54.21-6.99,1.22-8.19,2.38-1.63,1.46-.33,3.15,3.22,4.19,1.99.6,4.76.93,7.51.93,2.75,0,5.53-.33,7.51-.93,3.55-1.04,4.85-2.72,3.23-4.19Z"/>
		<path class="cls-1" d="M20.28,7.93c-.07-.98-.86-1.74-1.8-2.09.39-.54.44-1.14.17-1.81-.44-1.06-1.67-1.39-2.4-1.34-1.04.07-1.65.5-2.74,1.34-.25-.2-.77-.58-.99-.75h0s.74-.61,1.53-1.03c.75-.4,1.24-.45,1.24-.45,0,0-1.31-1.79-3.84-1.8h0c-2.53.02-3.84,1.8-3.84,1.8,0,0,.5.05,1.24.45.78.42,1.53,1.03,1.53,1.03-.23.17-.74.55-.99.75-1.09-.84-1.7-1.27-2.74-1.34-.73-.05-1.96.29-2.4,1.34-.28.67-.22,1.27.17,1.81-.95.35-1.74,1.11-1.8,2.09-.07.98.51,1.88,1.53,2.32-.28.37-.42.78-.42,1.14,0,.95.85,2.25,2.66,2.19,1.35-.04,1.89-.45,2.95-1.28.06.09.89,1.4.89,3.68,0,0,.11,1.73-.75,5.97h0c0,.23.89.41,1.98.41s1.98-.18,1.98-.41h0c-.86-4.25-.75-5.97-.75-5.97,0-2.28.83-3.58.89-3.68,1.06.82,1.6,1.24,2.95,1.28,1.82.05,2.67-1.24,2.67-2.19,0-.36-.14-.77-.42-1.14,1.02-.44,1.59-1.34,1.52-2.32ZM16.2,4.05c.94-.05,1.32.52,1.24.91-.09.47-.69.83-1.24.76-.54-.06-.95-.33-1.61-.86.45-.35.99-.79,1.6-.81ZM13.53,5.68c.31.23.6.45.83.62.12.09.23.18.36.27-.16.12-.28.22-.47.36-.13.1-.34.26-.54.4-.33-.25-.72-.54-1.18-.89.31-.23.64-.49,1-.76ZM12.43,4.84c-.31.23-.59.46-.98.75h0s-.01,0-.01,0c-.39-.29-.67-.52-.98-.75.25-.19.55-.42.96-.73l.03-.03.03.03c.41.31.71.54.96.73ZM10.09,1.55s.34-.37,1.34-.38c1,0,1.35.38,1.35.38,0,0-.26.14-.63.4-.47.32-.7.51-.71.53-.01-.01-.25-.2-.71-.53-.37-.26-.63-.4-.63-.4ZM11.39,7.3l.05-.04.05.04c.36.28.73.54,1.14.86-.24.17-.43.32-.6.45-.17.12-.36.27-.56.41l-.03.02-.03-.02c-.19-.15-.38-.29-.55-.41-.17-.13-.36-.28-.6-.45.4-.31.78-.58,1.14-.86ZM9.35,5.68c.36.27.69.53,1,.76-.46.35-.85.65-1.18.89-.2-.15-.41-.3-.54-.4-.18-.14-.31-.24-.46-.36.13-.08.23-.17.35-.27.23-.17.52-.4.83-.62ZM6.67,4.05c.61.03,1.16.47,1.6.81-.66.53-1.06.8-1.61.86-.55.06-1.14-.29-1.23-.76-.08-.38.29-.96,1.24-.91ZM3.92,8.19c-.02-.51.34-1.21,1.67-1.29.9-.05,1.53.49,2.52,1.22-.8.6-1.41,1.11-2.54,1.19-.92.06-1.62-.62-1.65-1.13ZM6.47,12.31c-.96.05-1.52-.43-1.49-.95.03-.41.93-1.37,2.81-.52.26.12.47.25.69.44-.93.7-1.29.99-2.02,1.03ZM9.5,10.5c-.35-.33-.73-.62-1.24-.85.3-.2.59-.42.9-.68.01-.01.02-.01.03-.02.42.32.83.62,1.18.89-.3.24-.59.45-.87.66ZM11.46,14.08l-.03.12-.03-.12c-.23-.98-.53-1.83-.94-2.47.34-.26.65-.49.97-.73.32.24.63.48.97.73-.41.64-.72,1.49-.94,2.47ZM13.37,10.5c-.29-.21-.57-.42-.87-.66.35-.27.76-.58,1.18-.89.01,0,.02,0,.03.02.31.25.6.48.9.68-.5.23-.89.52-1.23.85ZM16.41,12.31c-.73-.04-1.08-.33-2.02-1.03.22-.19.43-.32.69-.44,1.88-.85,2.79.11,2.81.52.03.52-.53.99-1.49.95ZM17.31,9.32c-1.13-.08-1.75-.59-2.54-1.19.98-.73,1.62-1.28,2.52-1.22,1.33.08,1.69.78,1.67,1.29-.03.51-.73,1.19-1.65,1.13Z"/>
	</g>
</svg>