<?xml version="1.0" encoding="UTF-8"?>
<svg id="Layer_1" data-name="Layer 1" xmlns="http://www.w3.org/2000/svg" viewBox="0 0 57.75 71.14">
	<path d="M56.5,59.64l-7.01-11.18h-20.48v-3.22h18.47l-5.04-8.05h-13.42v-3.21h11.4l-4.97-7.93h-6.44v-3.2h6.44v-8.23h-6.44v-3.2h6.44V3.4h2.22c.94-.01,1.7-.77,1.7-1.71s-.76-1.7-1.7-1.7h-17.54c-.94,0-1.7.76-1.7,1.7s.76,1.7,1.7,1.7h0s2.19.01,2.19.01v22.67L1.17,59.76c-.73,1.1-1.17,2.52-1.17,4,0,4.07,3.31,7.38,7.38,7.38h42.99c4.07,0,7.38-3.31,7.38-7.38,0-1.48-.43-2.9-1.25-4.13Z"/>
</svg>